<svg width="188" height="29" viewBox="0 0 188 29" fill="none" xmlns="http://www.w3.org/2000/svg">
<path d="M52.2207 5.06738C53.4039 5.06738 54.4439 5.30615 55.3408 5.7832C56.2378 6.24125 56.9447 6.8426 57.46 7.58691V5.3252H61.4961V21.2998C61.496 22.7692 61.2 24.0767 60.6084 25.2217C60.0168 26.3857 59.1294 27.3018 57.9463 27.9697C56.7631 28.6567 55.3317 29 53.6523 29C51.4004 29 49.5491 28.4753 48.0986 27.4258C46.6673 26.3762 45.856 24.9448 45.665 23.1318H49.6445C49.8545 23.8568 50.3024 24.4298 50.9893 24.8496C51.6953 25.2885 52.5449 25.5077 53.5371 25.5078C54.7013 25.5078 55.6468 25.1544 56.3721 24.4482C57.097 23.7613 57.4599 22.7117 57.46 21.2998V18.8369C56.9447 19.5812 56.2286 20.202 55.3125 20.6982C54.4155 21.1944 53.3849 21.4424 52.2207 21.4424C50.8849 21.4424 49.6635 21.099 48.5566 20.4121C47.4497 19.7251 46.5717 18.761 45.9229 17.5205C45.293 16.2609 44.9775 14.8195 44.9775 13.1973C44.9776 11.5944 45.2932 10.173 45.9229 8.93262C46.5717 7.69218 47.4396 6.73731 48.5273 6.06934C49.6343 5.40136 50.8657 5.06738 52.2207 5.06738ZM23.5703 5.06738C25.0968 5.06741 26.4804 5.41081 27.7207 6.09766C28.9612 6.76563 29.9355 7.72041 30.6416 8.96094C31.3667 10.2014 31.7295 11.6328 31.7295 13.2549C31.7295 14.8771 31.3566 16.3083 30.6123 17.5488C29.8871 18.7892 28.8952 19.7534 27.6357 20.4404C26.3953 21.1083 25.0018 21.4423 23.4561 21.4424C21.9292 21.4424 20.5545 21.1084 19.333 20.4404C18.1117 19.7534 17.1475 18.7893 16.4414 17.5488C15.7545 16.3084 15.4111 14.8769 15.4111 13.2549C15.4111 11.6327 15.7646 10.2014 16.4707 8.96094C17.1959 7.72041 18.1784 6.76563 19.4189 6.09766C20.6595 5.4106 22.0435 5.06738 23.5703 5.06738ZM72.1162 5.06738C73.6238 5.06738 74.9691 5.39219 76.1523 6.04102C77.3546 6.68987 78.2808 7.61512 78.9297 8.81738C79.5976 10.0006 79.9316 11.3654 79.9316 12.9111C79.9316 13.4835 79.8937 13.9991 79.8174 14.457H68.2227C68.3181 15.602 68.7188 16.4996 69.4248 17.1484C70.1309 17.7973 70.9997 18.1221 72.0303 18.1221C73.5189 18.1221 74.5782 17.4818 75.208 16.2031H79.5312C79.0732 17.7298 78.1951 18.99 76.8975 19.9824C75.5997 20.9558 74.0056 21.4424 72.1162 21.4424C70.5895 21.4424 69.2155 21.1083 67.9941 20.4404C66.7918 19.7534 65.8472 18.7894 65.1602 17.5488C64.4922 16.3083 64.1582 14.8771 64.1582 13.2549C64.1582 11.6137 64.4922 10.1731 65.1602 8.93262C65.8281 7.69217 66.7626 6.73731 67.9648 6.06934C69.1672 5.40136 70.5512 5.06738 72.1162 5.06738ZM127.82 5.06738C129.328 5.06741 130.673 5.39216 131.856 6.04102C133.059 6.6899 133.985 7.61506 134.634 8.81738C135.302 10.0006 135.636 11.3653 135.636 12.9111C135.636 13.4836 135.597 13.999 135.521 14.457H123.927C124.022 15.6021 124.423 16.4995 125.129 17.1484C125.835 17.7973 126.704 18.1221 127.734 18.1221C129.223 18.122 130.282 17.4818 130.912 16.2031H135.234C134.776 17.7299 133.898 18.99 132.601 19.9824C131.303 20.9556 129.71 21.4424 127.82 21.4424C126.294 21.4424 124.919 21.1084 123.697 20.4404C122.495 19.7534 121.55 18.7892 120.863 17.5488C120.195 16.3084 119.861 14.877 119.861 13.2549C119.861 11.6138 120.195 10.173 120.863 8.93262C121.531 7.69213 122.467 6.73731 123.669 6.06934C124.871 5.40136 126.255 5.06738 127.82 5.06738ZM168.27 5.06738C169.777 5.06739 171.122 5.39218 172.306 6.04102C173.508 6.68988 174.434 7.61509 175.083 8.81738C175.751 10.0006 176.085 11.3653 176.085 12.9111C176.085 13.4836 176.047 13.9991 175.971 14.457H164.376C164.471 15.6021 164.872 16.4996 165.578 17.1484C166.284 17.7973 167.153 18.1221 168.184 18.1221C169.672 18.1221 170.732 17.4818 171.361 16.2031H175.684C175.226 17.7299 174.348 18.99 173.05 19.9824C171.752 20.9556 170.159 21.4424 168.27 21.4424C166.743 21.4424 165.369 21.1083 164.147 20.4404C162.945 19.7534 162 18.7894 161.312 17.5488C160.645 16.3084 160.311 14.877 160.311 13.2549C160.311 11.6138 160.645 10.173 161.312 8.93262C161.98 7.69217 162.916 6.73731 164.118 6.06934C165.321 5.40136 166.705 5.06738 168.27 5.06738ZM12.5957 15.2305C12.5956 17.177 12.0322 18.6945 10.9062 19.7822C9.78033 20.8507 8.27286 21.3847 6.38379 21.3848C4.47535 21.3848 2.92935 20.8315 1.74609 19.7246C0.581905 18.6177 0 17.0718 0 15.0869H4.00781C4.0269 15.9457 4.22677 16.6137 4.6084 17.0908C5.00917 17.5679 5.5819 17.8066 6.32617 17.8066C7.0514 17.8066 7.60463 17.5772 7.98633 17.1191C8.36794 16.6612 8.55951 16.0318 8.55957 15.2305V1.20215H12.5957V15.2305ZM43.3193 9.30469H42.2598C41.0005 9.30474 40.0463 9.59998 39.3975 10.1914C38.7677 10.783 38.4522 11.8139 38.4521 13.2832V21.1846H34.4443V5.3252H38.4521V7.78711C38.9674 6.94737 39.6364 6.28865 40.457 5.81152C41.2967 5.33457 42.2508 5.0957 43.3193 5.0957V9.30469ZM96.1445 1.20215C98.2436 1.20221 100.085 1.61306 101.669 2.43359C103.272 3.25425 104.503 4.42827 105.362 5.95508C106.24 7.46272 106.679 9.21887 106.679 11.2227C106.679 13.2262 106.24 14.9817 105.362 16.4893C104.503 17.9779 103.272 19.1325 101.669 19.9531C100.085 20.7737 98.2437 21.1845 96.1445 21.1846H89.1592V1.20215H96.1445ZM118.267 9.30469H117.208C115.948 9.30469 114.994 9.59982 114.345 10.1914C113.715 10.783 113.4 11.8138 113.4 13.2832V21.1846H109.393V5.3252H113.4V7.78711C113.916 6.94739 114.584 6.28864 115.404 5.81152C116.244 5.33452 117.198 5.09574 118.267 5.0957V9.30469ZM144.287 10.2207L147.207 5.3252H151.501L146.291 13.2266L151.559 21.1846H147.035L143.771 16.2607L140.88 21.1846H136.586L141.768 13.2266L136.528 5.3252H141.052L144.287 10.2207ZM157.456 21.1846H153.448V0H157.456V21.1846ZM187.599 9.30469H186.54C185.28 9.30469 184.326 9.59978 183.677 10.1914C183.047 10.783 182.732 11.8138 182.732 13.2832V21.1846H178.725V5.3252H182.732V7.78711C183.248 6.94737 183.916 6.28865 184.736 5.81152C185.576 5.33451 186.53 5.09576 187.599 5.0957V9.30469ZM23.5127 8.55957C22.3677 8.55962 21.4035 8.9704 20.6211 9.79102C19.8578 10.5926 19.4766 11.7473 19.4766 13.2549C19.4766 14.7624 19.8486 15.9264 20.5928 16.7471C21.3562 17.5486 22.311 17.9502 23.4561 17.9502C24.1811 17.9501 24.8586 17.778 25.4883 17.4346C26.1371 17.072 26.6525 16.5372 27.0342 15.8311C27.4158 15.125 27.6064 14.2662 27.6064 13.2549C27.6064 11.7472 27.2059 10.5926 26.4043 9.79102C25.6218 8.97036 24.6578 8.55957 23.5127 8.55957ZM53.251 8.58887C52.5068 8.58892 51.8201 8.7703 51.1904 9.13281C50.5607 9.49536 50.0453 10.0294 49.6445 10.7354C49.2629 11.4223 49.0714 12.2432 49.0713 13.1973C49.0713 14.1515 49.2628 14.9916 49.6445 15.7168C50.0453 16.4229 50.5606 16.9669 51.1904 17.3486C51.8392 17.7302 52.5259 17.9208 53.251 17.9209C53.9953 17.9209 54.6919 17.7395 55.3408 17.377C55.9896 16.9953 56.505 16.4613 56.8867 15.7744C57.2684 15.0683 57.46 14.2282 57.46 13.2549C57.4599 12.2816 57.2684 11.4517 56.8867 10.7646C56.505 10.0585 55.9897 9.52375 55.3408 9.16113C54.692 8.77953 53.9952 8.58887 53.251 8.58887ZM93.167 17.7783H96.001C98.1001 17.7783 99.7221 17.2054 100.867 16.0605C102.012 14.9155 102.585 13.3027 102.585 11.2227C102.585 9.14239 102.012 7.51966 100.867 6.35547C99.7221 5.17236 98.1002 4.58106 96.001 4.58105H93.167V17.7783ZM72.002 8.35938C71.0096 8.35938 70.1695 8.66475 69.4824 9.27539C68.8144 9.86703 68.4046 10.6978 68.252 11.7666H75.7803C75.7612 10.7361 75.3892 9.9154 74.6641 9.30469C73.9389 8.67493 73.0515 8.35942 72.002 8.35938ZM127.706 8.35938C126.714 8.35938 125.874 8.6648 125.187 9.27539C124.519 9.86703 124.108 10.6978 123.955 11.7666H131.484C131.465 10.7362 131.093 9.91538 130.368 9.30469C129.643 8.67497 128.756 8.35946 127.706 8.35938ZM168.155 8.35938C167.163 8.35938 166.323 8.66475 165.636 9.27539C164.968 9.86703 164.557 10.6978 164.404 11.7666H171.934C171.915 10.7361 171.542 9.91539 170.817 9.30469C170.092 8.67494 169.205 8.35944 168.155 8.35938Z" fill="#CCBD9B"/>
</svg>
